<?xml version="1.0" encoding="utf-8"?>
<!-- Generator: Adobe Illustrator 27.6.1, SVG Export Plug-In . SVG Version: 6.00 Build 0)  -->
<svg version="1.1" id="Layer_1" xmlns="http://www.w3.org/2000/svg" xmlns:xlink="http://www.w3.org/1999/xlink" x="0px" y="0px"
	 viewBox="0 0 385.28 304.89" style="enable-background:new 0 0 385.28 304.89;" xml:space="preserve">
<style type="text/css">
	.st0{fill:#58595B;}
</style>
<g>
	<g>
		<g>
			<path class="st0" d="M9.12,278.41c1.34,0.71,3.04,1.07,5.11,1.07h13.81c1.78,0,3.39,0.32,4.82,0.96c1.43,0.64,2.65,1.5,3.67,2.57
				c1.02,1.07,1.8,2.29,2.35,3.67c0.55,1.37,0.83,2.77,0.83,4.2c0,1.43-0.28,2.82-0.83,4.17c-0.55,1.36-1.34,2.57-2.35,3.64
				c-1.02,1.07-2.25,1.93-3.69,2.57c-1.44,0.64-3.04,0.96-4.79,0.96H14.23c-1.75,0-3.34-0.32-4.79-0.96
				c-1.44-0.64-2.68-1.5-3.69-2.57c-1.02-1.07-1.81-2.28-2.38-3.64c-0.57-1.36-0.86-2.75-0.86-4.17c0-0.5,0.21-0.98,0.62-1.44
				c0.41-0.46,0.97-0.7,1.69-0.7c0.75,0,1.32,0.23,1.71,0.7c0.39,0.46,0.59,0.94,0.59,1.44c0,0.89,0.18,1.76,0.53,2.62
				c0.36,0.86,0.86,1.6,1.5,2.25c0.64,0.64,1.4,1.16,2.27,1.55c0.87,0.39,1.81,0.59,2.81,0.59h13.81c1.03,0,1.98-0.2,2.84-0.59
				s1.6-0.91,2.22-1.55c0.62-0.64,1.11-1.39,1.47-2.25c0.36-0.86,0.54-1.73,0.54-2.62c0-0.93-0.18-1.81-0.54-2.65
				c-0.36-0.84-0.85-1.59-1.47-2.25c-0.62-0.66-1.36-1.19-2.22-1.58s-1.8-0.59-2.84-0.59H14.23c-1.6,0-3.11-0.17-4.52-0.51
				c-1.41-0.34-2.65-0.88-3.72-1.63c-1.07-0.75-1.92-1.7-2.54-2.86c-0.62-1.16-0.94-2.54-0.94-4.15c0-1.43,0.28-2.82,0.83-4.18
				c0.55-1.35,1.35-2.57,2.38-3.64c1.03-1.07,2.27-1.93,3.72-2.6c1.44-0.66,3.04-0.99,4.79-0.99h13.81c1.78,0,3.39,0.33,4.82,0.99
				c1.43,0.66,2.65,1.52,3.67,2.6c1.02,1.07,1.8,2.28,2.35,3.64c0.55,1.36,0.83,2.75,0.83,4.18c0,0.5-0.21,0.97-0.62,1.42
				c-0.41,0.44-0.97,0.67-1.69,0.67c-0.71,0-1.28-0.22-1.69-0.67c-0.41-0.45-0.61-0.92-0.61-1.42c0-0.93-0.18-1.81-0.54-2.65
				c-0.36-0.84-0.85-1.59-1.47-2.25c-0.62-0.66-1.36-1.19-2.22-1.58s-1.8-0.59-2.84-0.59H14.23c-1.03,0-1.99,0.2-2.86,0.59
				c-0.87,0.39-1.62,0.91-2.25,1.55c-0.62,0.64-1.11,1.39-1.47,2.25c-0.36,0.86-0.53,1.75-0.53,2.68
				C7.12,276.45,7.78,277.7,9.12,278.41z"/>
			<path class="st0" d="M47.35,302.18c-0.71,0-1.27-0.24-1.69-0.72c-0.41-0.48-0.62-0.97-0.62-1.47v-34.57
				c0-0.5,0.21-0.98,0.62-1.44c0.41-0.47,0.97-0.7,1.69-0.7h32.59c0.75,0,1.32,0.23,1.71,0.7c0.39,0.46,0.59,0.95,0.59,1.44
				s-0.2,0.99-0.59,1.47c-0.39,0.48-0.96,0.72-1.71,0.72H49.66v11.83h23.12c0.71,0,1.27,0.23,1.69,0.7
				c0.41,0.47,0.62,0.95,0.62,1.44s-0.21,0.99-0.62,1.47s-0.97,0.72-1.69,0.72H49.66v14.08h30.29c0.75,0,1.32,0.23,1.71,0.69
				c0.39,0.47,0.59,0.95,0.59,1.44c0,0.5-0.2,0.99-0.59,1.47c-0.39,0.48-0.96,0.72-1.71,0.72H47.35z"/>
			<path class="st0" d="M121.2,301.78c-0.36-0.27-0.62-0.56-0.8-0.88l-5.41-11.45H97.39l-5.41,11.45c-0.18,0.32-0.45,0.62-0.8,0.91
				c-0.36,0.29-0.78,0.43-1.29,0.43c-0.78,0-1.36-0.25-1.74-0.75c-0.37-0.5-0.56-1-0.56-1.5c0-0.32,0.05-0.61,0.16-0.86l16.32-34.57
				c0.18-0.32,0.45-0.61,0.8-0.88s0.78-0.4,1.28-0.4c0.5,0,0.94,0.12,1.31,0.37c0.37,0.25,0.65,0.55,0.83,0.91l16.32,34.57
				c0.11,0.25,0.16,0.54,0.16,0.86c0,0.54-0.2,1.04-0.59,1.5c-0.39,0.46-0.96,0.7-1.71,0.7
				C121.99,302.18,121.56,302.04,121.2,301.78z M112.96,285.1l-6.8-14.34l-6.74,14.34H112.96z"/>
			<path class="st0" d="M167.2,299.29c0.09,0.25,0.13,0.48,0.13,0.69c0,0.5-0.21,0.99-0.62,1.47c-0.41,0.48-0.97,0.72-1.69,0.72
				c-0.39,0-0.73-0.08-1.02-0.24c-0.29-0.16-0.52-0.35-0.7-0.56l-13.86-15.36h-14.72v13.97c0,0.5-0.2,0.99-0.59,1.47
				c-0.39,0.48-0.96,0.72-1.71,0.72c-0.71,0-1.27-0.24-1.69-0.72c-0.41-0.48-0.62-0.97-0.62-1.47v-34.57c0-0.5,0.21-0.98,0.62-1.44
				c0.41-0.47,0.97-0.7,1.69-0.7h23.23c1.78,0,3.39,0.33,4.82,0.99c1.43,0.66,2.65,1.52,3.67,2.6s1.8,2.28,2.35,3.64
				c0.55,1.36,0.83,2.75,0.83,4.18c0,1.43-0.28,2.82-0.83,4.17c-0.55,1.36-1.34,2.57-2.35,3.64c-1.02,1.07-2.25,1.93-3.69,2.57
				c-1.44,0.64-3.04,0.96-4.79,0.96h-0.16l11.29,12.63C166.97,298.82,167.11,299.04,167.2,299.29z M134.74,281.68h20.93
				c1.03,0,1.98-0.2,2.84-0.59c0.86-0.39,1.6-0.91,2.22-1.55c0.62-0.64,1.11-1.39,1.47-2.25c0.36-0.86,0.54-1.73,0.54-2.62
				c0-0.93-0.18-1.81-0.54-2.65c-0.36-0.84-0.85-1.59-1.47-2.25c-0.62-0.66-1.36-1.19-2.22-1.58c-0.86-0.39-1.8-0.59-2.84-0.59
				h-20.93V281.68z"/>
			<path class="st0" d="M206.47,296.74c-1.2,1.13-2.52,2.09-3.96,2.89s-3.01,1.43-4.68,1.87c-1.68,0.45-3.41,0.67-5.19,0.67
				c-3,0-5.72-0.55-8.16-1.66c-2.44-1.1-4.54-2.57-6.29-4.39c-1.75-1.82-3.1-3.9-4.07-6.24c-0.96-2.34-1.44-4.74-1.44-7.2
				c0-2.46,0.48-4.85,1.44-7.17c0.96-2.32,2.32-4.39,4.07-6.21c1.75-1.82,3.84-3.28,6.29-4.39c2.44-1.11,5.17-1.66,8.16-1.66
				c1.71,0,3.38,0.21,5,0.62c1.62,0.41,3.15,0.99,4.58,1.74c1.43,0.75,2.74,1.66,3.94,2.73c1.19,1.07,2.22,2.25,3.08,3.53
				c0.22,0.36,0.32,0.75,0.32,1.18c0,0.5-0.2,0.98-0.59,1.44c-0.39,0.46-0.96,0.7-1.71,0.7c-0.46,0-0.85-0.09-1.15-0.27
				c-0.3-0.18-0.54-0.41-0.72-0.7c-0.21-0.25-0.42-0.49-0.61-0.72c-0.2-0.23-0.38-0.47-0.56-0.72c-0.18-0.22-0.37-0.43-0.56-0.64
				c-0.2-0.22-0.44-0.43-0.72-0.64c-1.43-1.25-3-2.21-4.71-2.89c-1.71-0.68-3.57-1.02-5.57-1.02c-2.25,0-4.31,0.42-6.18,1.26
				c-1.87,0.84-3.5,1.96-4.87,3.37c-1.37,1.41-2.44,3.02-3.18,4.84c-0.75,1.82-1.12,3.69-1.12,5.62c0,1.96,0.37,3.85,1.12,5.67
				c0.75,1.82,1.81,3.43,3.18,4.84s3,2.53,4.87,3.37c1.87,0.84,3.93,1.26,6.18,1.26c2.14,0,4.17-0.4,6.07-1.2
				c1.91-0.8,3.56-1.93,4.95-3.4c0.22-0.18,0.39-0.37,0.54-0.56c0.14-0.2,0.29-0.4,0.43-0.61c0.18-0.22,0.35-0.43,0.51-0.64
				c0.16-0.22,0.33-0.43,0.51-0.64c0.18-0.28,0.43-0.52,0.75-0.69c0.32-0.18,0.71-0.27,1.18-0.27c0.71,0,1.27,0.22,1.69,0.67
				c0.41,0.44,0.61,0.92,0.61,1.42c0,0.43-0.11,0.8-0.32,1.12C208.69,294.38,207.67,295.62,206.47,296.74z"/>
			<path class="st0" d="M252.41,299.98c0,0.5-0.2,0.99-0.59,1.47c-0.39,0.48-0.96,0.72-1.71,0.72c-0.71,0-1.27-0.24-1.69-0.72
				c-0.41-0.48-0.62-0.97-0.62-1.47v-16.21h-27.99v16.21c0,0.5-0.2,0.99-0.59,1.47c-0.39,0.48-0.96,0.72-1.71,0.72
				c-0.71,0-1.27-0.24-1.69-0.72c-0.41-0.48-0.61-0.97-0.61-1.47v-34.57c0-0.5,0.2-0.98,0.61-1.44c0.41-0.47,0.97-0.7,1.69-0.7
				c0.75,0,1.32,0.23,1.71,0.7c0.39,0.46,0.59,0.95,0.59,1.44v14.02h27.99v-14.02c0-0.5,0.21-0.98,0.62-1.44
				c0.41-0.47,0.97-0.7,1.69-0.7c0.75,0,1.32,0.23,1.71,0.7c0.39,0.46,0.59,0.95,0.59,1.44V299.98z"/>
			<path class="st0" d="M294.95,299.98c0,0.54-0.2,1.04-0.59,1.5c-0.39,0.46-0.96,0.7-1.71,0.7c-0.71,0-1.28-0.25-1.71-0.75
				l-28.58-30.29v28.85c0,0.5-0.2,0.99-0.59,1.47c-0.39,0.48-0.96,0.72-1.71,0.72c-0.71,0-1.27-0.24-1.69-0.72
				c-0.41-0.48-0.61-0.97-0.61-1.47v-34.57c0-0.5,0.2-0.98,0.61-1.44c0.41-0.47,0.97-0.7,1.69-0.7c0.75,0,1.32,0.25,1.71,0.75
				l28.58,30.29v-28.9c0-0.5,0.21-0.98,0.62-1.44c0.41-0.47,0.97-0.7,1.69-0.7c0.75,0,1.32,0.23,1.71,0.7
				c0.39,0.46,0.59,0.95,0.59,1.44V299.98z"/>
			<path class="st0" d="M337.49,299.98c0,0.54-0.2,1.04-0.59,1.5c-0.39,0.46-0.96,0.7-1.71,0.7c-0.71,0-1.28-0.24-1.69-0.72
				c-0.41-0.48-0.62-0.97-0.62-1.47v-2.19c-1.75,1.36-3.69,2.43-5.83,3.21c-2.14,0.78-4.41,1.18-6.8,1.18c-3,0-5.72-0.55-8.16-1.66
				c-2.44-1.1-4.54-2.57-6.29-4.39c-1.75-1.82-3.11-3.9-4.07-6.24c-0.96-2.34-1.44-4.74-1.44-7.2c0-2.46,0.48-4.85,1.44-7.17
				c0.96-2.32,2.32-4.39,4.07-6.21c1.75-1.82,3.84-3.28,6.29-4.39c2.45-1.11,5.17-1.66,8.16-1.66c1.71,0,3.38,0.21,5,0.62
				c1.62,0.41,3.15,0.99,4.58,1.74c1.43,0.75,2.74,1.66,3.94,2.73c1.19,1.07,2.22,2.25,3.08,3.53c0.22,0.36,0.32,0.75,0.32,1.18
				c0,0.5-0.2,0.98-0.59,1.44c-0.39,0.46-0.96,0.7-1.71,0.7c-0.46,0-0.85-0.09-1.15-0.27c-0.3-0.18-0.54-0.41-0.72-0.7
				c-0.21-0.25-0.42-0.49-0.61-0.72c-0.2-0.23-0.38-0.47-0.56-0.72c-0.18-0.22-0.37-0.43-0.56-0.64c-0.2-0.22-0.44-0.43-0.72-0.64
				c-1.43-1.25-3-2.21-4.71-2.89c-1.71-0.68-3.57-1.02-5.57-1.02c-2.25,0-4.31,0.42-6.18,1.26c-1.87,0.84-3.5,1.96-4.87,3.37
				c-1.37,1.41-2.43,3.02-3.18,4.84c-0.75,1.82-1.12,3.69-1.12,5.62c0,1.96,0.37,3.85,1.12,5.67c0.75,1.82,1.81,3.43,3.18,4.84
				s3,2.53,4.87,3.37c1.87,0.84,3.93,1.26,6.18,1.26c2.64,0,5.06-0.6,7.25-1.79c2.19-1.2,3.99-2.79,5.38-4.79v-2.89h-9.42
				c-0.75,0-1.32-0.23-1.71-0.7c-0.39-0.46-0.59-0.95-0.59-1.44c0-0.54,0.2-1.03,0.59-1.5c0.39-0.46,0.96-0.69,1.71-0.69h11.72
				c0.78,0,1.36,0.23,1.74,0.69c0.37,0.46,0.56,0.96,0.56,1.5V299.98z"/>
			<path class="st0" d="M381.31,289.89c-0.96,2.34-2.32,4.42-4.07,6.24c-1.75,1.82-3.84,3.28-6.29,4.39
				c-2.44,1.11-5.17,1.66-8.16,1.66c-3,0-5.72-0.55-8.16-1.66c-2.44-1.1-4.54-2.57-6.29-4.39c-1.75-1.82-3.11-3.9-4.07-6.24
				c-0.96-2.34-1.44-4.74-1.44-7.2c0-2.46,0.48-4.85,1.44-7.17c0.96-2.32,2.32-4.39,4.07-6.21c1.75-1.82,3.84-3.28,6.29-4.39
				c2.45-1.11,5.17-1.66,8.16-1.66c3,0,5.72,0.55,8.16,1.66c2.45,1.1,4.54,2.57,6.29,4.39c1.75,1.82,3.11,3.89,4.07,6.21
				c0.96,2.32,1.44,4.71,1.44,7.17C382.76,285.16,382.28,287.56,381.31,289.89z M377.03,277.08c-0.75-1.82-1.8-3.43-3.16-4.84
				c-1.36-1.41-2.98-2.53-4.87-3.37c-1.89-0.84-3.96-1.26-6.21-1.26c-2.25,0-4.32,0.42-6.21,1.26c-1.89,0.84-3.51,1.96-4.87,3.37
				c-1.35,1.41-2.41,3.02-3.16,4.84c-0.75,1.82-1.12,3.69-1.12,5.62c0,1.96,0.37,3.85,1.12,5.67c0.75,1.82,1.8,3.43,3.16,4.84
				c1.36,1.41,2.98,2.53,4.87,3.37c1.89,0.84,3.96,1.26,6.21,1.26c2.25,0,4.32-0.42,6.21-1.26c1.89-0.84,3.51-1.96,4.87-3.37
				s2.41-3.02,3.16-4.84c0.75-1.82,1.13-3.71,1.13-5.67C378.16,280.77,377.78,278.9,377.03,277.08z"/>
		</g>
		<g>
			<g>
				<g>
					<g>
						<path class="st0" d="M344.94,100.96h-79.41c-6.84,0-12.57,5.6-12.44,12.44c0.13,6.63,5.54,11.96,12.2,11.96h79.65
							c7.41,0,13.42,6.01,13.42,13.42v22.28c0,5.29-2.1,10.36-5.84,14.11l-0.06,0.06c-7.98,7.98-17.26,14.24-27.6,18.61
							c-10.69,4.52-22.05,6.81-33.78,6.81s-23.09-2.29-33.78-6.81c-10.33-4.37-19.62-10.63-27.6-18.61
							c-6.58-6.58-11.98-14.04-16.13-22.25c-1.1-2.18-3.84-2.95-5.92-1.67l-13.7,8.43c-1.87,1.15-2.54,3.55-1.52,5.5
							c18.55,35.55,55.76,59.82,98.64,59.82c23.35,0,45.01-7.2,62.9-19.49c1.86-1.28,4.38,0.04,4.38,2.3v4.75
							c0,6.84,5.6,12.57,12.44,12.44c6.63-0.13,11.96-5.54,11.96-12.2v-74.07C382.76,117.89,365.83,100.96,344.94,100.96z"/>
					</g>
					<g>
						<path class="st0" d="M193.96,67.98l13.7,8.43c2.08,1.28,4.82,0.51,5.92-1.67c4.14-8.21,9.55-15.67,16.13-22.25
							c7.98-7.98,17.26-14.24,27.6-18.61c10.69-4.52,22.05-6.81,33.78-6.81s23.09,2.29,33.78,6.81
							c10.33,4.37,19.62,10.63,27.6,18.61c2.64,2.64,5.08,5.42,7.34,8.33c2.06,2.66,5.22,4.24,8.58,4.24h3.48
							c8.84,0,13.98-10.07,8.72-17.19c-20.25-27.42-52.8-45.21-89.5-45.21c-42.88,0-80.09,24.27-98.64,59.82
							C191.43,64.43,192.09,66.83,193.96,67.98z"/>
					</g>
				</g>
				<g>
					<path class="st0" d="M160.02,142.12V85.59c0-12,13.15-19.35,23.37-13.06l45.95,28.26c9.74,5.99,9.74,20.14,0,26.13
						l-45.95,28.26C173.17,161.47,160.02,154.12,160.02,142.12z"/>
				</g>
			</g>
			<g>
				<g>
					<path class="st0" d="M149.93,125.49H71.11c-9.16,0-17.77-0.96-25.81-2.9c-8.05-1.93-15.12-5.04-21.23-9.32
						c-6.11-4.28-10.95-9.72-14.51-16.34c-3.57-6.62-6.14-14.51-6.14-23.68c0-8.14,0.78-21.61,3.94-29.35
						c3.16-7.74,7.68-14.66,13.59-20.77c5.9-6.11,12.98-11.05,21.23-14.82c8.25-3.77,17.36-5.65,27.34-5.65h78.82
						c10.18,0,19.35,1.89,27.49,5.65c2.95,1.37,5.75,2.89,8.4,4.56c7.01,4.43,7.6,14.45,1.29,19.83l-0.4,0.34
						c-4.25,3.62-10.34,3.86-15.01,0.8c-1.75-1.15-3.61-2.17-5.58-3.08c-4.89-2.24-10.29-3.36-16.19-3.36H69.52
						c-5.91,0-11.36,1.12-16.34,3.36c-4.99,2.24-9.27,5.19-12.83,8.86c-3.57,3.67-6.37,7.94-8.4,12.83
						c-2.04,4.89-3.64,15.54-3.05,20.8c1.15,10.35,5.41,17.31,13.05,21.38c7.64,4.08,17.36,6.11,29.17,6.11h78.82V125.49z
						 M200.89,195.75c1.06,1.16,1.14,2.92,0.17,4.16c-1.34,1.72-2.77,3.38-4.3,4.98c-5.8,6.11-12.83,11-21.08,14.66
						s-17.36,5.5-27.34,5.5H69.52c-9.98,0-19.09-1.83-27.34-5.5s-15.28-8.55-21.08-14.66c-5.8-6.11-10.34-13.03-13.59-20.77
						c-3.26-7.74-4.89-15.68-4.89-23.83c0-2.85,1.17-5.6,3.51-8.25c2.34-2.64,5.55-4.77,9.62-4.77c4.28,0,7.53,2.12,9.78,4.77
						c2.24,2.65,3.36,5.4,3.36,8.25c0,5.09,1.02,10.08,3.05,14.97c2.03,4.89,4.89,9.16,8.55,12.83s7.99,6.62,12.98,8.86
						c4.99,2.24,10.33,3.36,16.04,3.36h78.82c5.9,0,11.3-1.12,16.19-3.36c4.89-2.24,9.11-5.19,12.68-8.86
						c2.89-2.98,5.29-6.36,7.18-10.15c0.57-1.13,2.14-1.23,2.82-0.16l0.63,1.22C191.13,185.33,195.55,191.01,200.89,195.75
						L200.89,195.75z"/>
				</g>
			</g>
		</g>
	</g>
</g>
</svg>
