<?xml version="1.0" encoding="UTF-8"?>
<svg id="Isolation_Mode" data-name="Isolation Mode" xmlns="http://www.w3.org/2000/svg" viewBox="0 0 107.7 120">
  <defs>
    <style>
      .cls-1 {
        fill: #fff;
      }

      .cls-2 {
        fill: #b8daff;
      }

      .cls-3 {
        fill: #3f8cf4;
      }
    </style>
  </defs>
  <g id="_47_Wallet" data-name="47 Wallet">
    <g>
      <path class="cls-2" d="M60.68,4.28V44.91H18.66V4.28c0-1.56,1.26-2.82,2.82-2.82H57.86c1.56,0,2.82,1.26,2.82,2.82Z"/>
      <path class="cls-1" d="M47.99,10.42c0-.24,.04-.47,.07-.71H31.57c.03,.23,.07,.46,.07,.71,0,3.12-2.52,5.64-5.64,5.64v28.85h27.64V16.06c-3.12,0-5.64-2.52-5.64-5.64h0Z"/>
      <path class="cls-2" d="M84.54,40.64l-33.32,33.32-29.71-29.71L54.83,10.93c1.62-1.62,4.25-1.62,5.87,0l23.84,23.84c1.62,1.62,1.62,4.25,0,5.87Z"/>
      <path class="cls-1" d="M72.17,35.06c.17-.17,.36-.3,.55-.45l-11.67-11.67c-.14,.19-.28,.38-.45,.55-2.2,2.2-5.77,2.2-7.98,0l-25.94,25.94,19.54,19.54,25.94-25.94c-2.2-2.2-2.2-5.77,0-7.98Z"/>
      <path class="cls-2" d="M99.6,50.14v58.47c0,5.49-4.45,9.93-9.93,9.93H11.4c-5.49,0-9.93-4.45-9.93-9.93V50.14c0-5.49,4.45-9.93,9.93-9.93H89.66c5.49,0,9.93,4.45,9.93,9.93h0Z"/>
      <g>
        <path class="cls-1" d="M99.6,54.05v-3.92c0-5.49-4.45-9.93-9.93-9.93H11.4c-5.49,0-9.93,4.45-9.93,9.93v3.92H99.6Z"/>
        <path class="cls-1" d="M1.46,104.69v3.92c0,5.49,4.45,9.93,9.93,9.93H89.66c5.49,0,9.93-4.45,9.93-9.93v-3.92H1.46Z"/>
        <path class="cls-1" d="M106.24,73.04v12.66c0,1.8-1.46,3.26-3.26,3.26h-25.13c-5.3,0-9.59-4.29-9.59-9.59s4.29-9.59,9.59-9.59h25.13c1.8,0,3.26,1.46,3.26,3.26Z"/>
        <path class="cls-1" d="M106.24,73.04v12.66c0,1.8-1.46,3.26-3.26,3.26h-25.13c-5.3,0-9.59-4.29-9.59-9.59s4.29-9.59,9.59-9.59h25.13c1.8,0,3.26,1.46,3.26,3.26Z"/>
      </g>
      <path class="cls-2" d="M83.04,79.37c0,2.01-1.61,3.62-3.62,3.62s-3.62-1.61-3.62-3.62,1.61-3.62,3.62-3.62,3.62,1.61,3.62,3.62Z"/>
      <path class="cls-3" d="M102.98,68.32h-1.92v-18.18c0-6.28-5.11-11.4-11.4-11.4h-2.56c.07-.34,.12-.69,.12-1.04,0-1.5-.58-2.91-1.65-3.97L62.14,10.3V4.28c0-2.36-1.92-4.28-4.28-4.28H21.48c-2.36,0-4.28,1.92-4.28,4.28V38.74h-5.81c-6.28,0-11.4,5.11-11.4,11.4v58.47c0,6.28,5.11,11.4,11.4,11.4H89.66c6.28,0,11.4-5.11,11.4-11.4v-18.18h1.92c2.6,0,4.72-2.12,4.72-4.72v-12.66c0-2.6-2.12-4.72-4.72-4.72h0Zm-19.48-32.52c.51,.51,.79,1.18,.79,1.9,0,.36-.07,.72-.21,1.04h-12.07c.07-1,.47-1.93,1.19-2.65,0,0,0,0,0,0,.26-.27,.92-.53,.97-1.39,.03-.42-.13-.83-.43-1.13l-11.67-11.67c-.3-.3-.7-.45-1.13-.43-.87,.05-1.11,.69-1.39,.97-1.63,1.63-4.28,1.63-5.91,0-.57-.57-1.5-.57-2.07,0l-16.28,16.28h-6.23L55.86,11.96c1.05-1.05,2.75-1.05,3.8,0l23.84,23.84Zm-12.88-1.21c-.96,1.18-1.48,2.63-1.55,4.15h-29.63l13.29-13.29c2.55,1.66,5.94,1.52,8.34-.42l9.55,9.55Zm-43.17,1.64V17.37c2.98-.63,5.27-3.12,5.6-6.19h13.51c.17,1.57,.86,2.97,1.89,4.06l-21,21ZM20.13,4.28c0-.75,.61-1.36,1.36-1.36H57.86c.75,0,1.36,.61,1.36,1.36v4.18c-1.87-.5-3.96-.04-5.42,1.43l-3.28,3.28c-.66-.73-1.06-1.69-1.06-2.75,0-.37,.27-1.03-.29-1.67-.28-.32-.68-.5-1.1-.5H31.57c-.42,0-.82,.18-1.1,.5-.57,.65-.29,1.27-.29,1.67,0,2.3-1.87,4.18-4.18,4.18-.81,0-1.46,.66-1.46,1.46v22.69h-4.4V4.28ZM2.93,50.14c0-4.67,3.8-8.47,8.47-8.47H89.66c4.67,0,8.47,3.8,8.47,8.47v2.45H2.93v-2.45Zm95.21,58.47c0,4.67-3.8,8.47-8.47,8.47H11.4c-4.67,0-8.47-3.8-8.47-8.47v-2.45H98.13v2.45Zm0-5.38H2.93V55.52H98.13v12.8h-20.28c-6.09,0-11.05,4.96-11.05,11.05s4.96,11.05,11.05,11.05h20.28v12.8Zm6.64-17.52c0,.99-.81,1.79-1.79,1.79h-25.13c-4.48,0-8.12-3.64-8.12-8.12s3.64-8.12,8.12-8.12h25.13c.99,0,1.79,.8,1.79,1.79v12.66Z"/>
      <path class="cls-3" d="M79.42,74.29c-2.8,0-5.08,2.28-5.08,5.08s2.28,5.08,5.08,5.08,5.08-2.28,5.08-5.08-2.28-5.08-5.08-5.08Zm0,7.24c-1.19,0-2.16-.97-2.16-2.16s.97-2.16,2.16-2.16,2.16,.97,2.16,2.16-.97,2.16-2.16,2.16Z"/>
    </g>
  </g>
</svg>